<svg width="50" height="50" viewBox="0 0 50 50" fill="none" xmlns="http://www.w3.org/2000/svg">
<g filter="url(#filter0_d_654_6951)">
<circle cx="25" cy="25" r="17" fill="white"/>
</g>
<path d="M33.4424 29.1842V19.4133C33.4424 18.4419 32.6491 17.7214 31.6858 17.8023H31.6372C29.9372 17.948 27.3548 18.8142 25.9139 19.7209L25.7762 19.8099C25.5415 19.9557 25.1529 19.9557 24.9181 19.8099L24.7158 19.6885C23.2748 18.7899 20.7005 17.9319 19.0005 17.7942C18.0372 17.7133 17.252 18.4419 17.252 19.4052V29.1842C17.252 29.9614 17.8834 30.6899 18.6605 30.7871L18.8953 30.8195C20.652 31.0542 23.3639 31.9447 24.9181 32.7947L24.9505 32.8109C25.1691 32.9323 25.5172 32.9323 25.7277 32.8109C27.282 31.9528 30.002 31.0542 31.7667 30.8195L32.0339 30.7871C32.811 30.6899 33.4424 29.9614 33.4424 29.1842Z" stroke="#374151" stroke-width="1.04082" stroke-linecap="round" stroke-linejoin="round"/>
<path d="M25.3472 20.0771V32.22" stroke="#374151" stroke-width="1.04082" stroke-linecap="round" stroke-linejoin="round"/>
<path d="M21.9064 22.5059H20.085" stroke="#374151" stroke-width="1.04082" stroke-linecap="round" stroke-linejoin="round"/>
<path d="M22.5135 24.9346H20.085" stroke="#374151" stroke-width="1.04082" stroke-linecap="round" stroke-linejoin="round"/>
<defs>
<filter id="filter0_d_654_6951" x="0.367347" y="0.367347" width="49.2653" height="49.2653" filterUnits="userSpaceOnUse" color-interpolation-filters="sRGB">
<feFlood flood-opacity="0" result="BackgroundImageFix"/>
<feColorMatrix in="SourceAlpha" type="matrix" values="0 0 0 0 0 0 0 0 0 0 0 0 0 0 0 0 0 0 127 0" result="hardAlpha"/>
<feOffset/>
<feGaussianBlur stdDeviation="3.81633"/>
<feComposite in2="hardAlpha" operator="out"/>
<feColorMatrix type="matrix" values="0 0 0 0 0 0 0 0 0 0 0 0 0 0 0 0 0 0 0.03 0"/>
<feBlend mode="normal" in2="BackgroundImageFix" result="effect1_dropShadow_654_6951"/>
<feBlend mode="normal" in="SourceGraphic" in2="effect1_dropShadow_654_6951" result="shape"/>
</filter>
</defs>
</svg>
