<svg width="16" height="16" viewBox="0 0 16 16" fill="none" xmlns="http://www.w3.org/2000/svg">
<path d="M12.334 16C12.4673 16 12.5933 15.948 12.6873 15.8533C12.882 15.6587 12.882 15.3413 12.6873 15.146L5.54065 8L12.6873 0.853333C12.782 0.759333 12.834 0.633333 12.834 0.5C12.834 0.366667 12.782 0.240667 12.6873 0.146667C12.5933 0.052 12.4673 0 12.334 0C12.2007 0 12.0747 0.052 11.9807 0.146667L4.83398 7.29333C4.44465 7.68267 4.44398 8.31667 4.83332 8.706L11.9807 15.8533C12.0747 15.948 12.2007 16 12.334 16Z" fill="#64748B"/>
</svg>
