<svg width="16" height="16" viewBox="0 0 16 16" fill="none" xmlns="http://www.w3.org/2000/svg">
<path d="M10.0002 15.1668H6.00016C2.38016 15.1668 0.833496 13.6202 0.833496 10.0002V6.00016C0.833496 2.38016 2.38016 0.833496 6.00016 0.833496H10.0002C13.6202 0.833496 15.1668 2.38016 15.1668 6.00016V10.0002C15.1668 13.6202 13.6202 15.1668 10.0002 15.1668ZM6.00016 1.8335C2.92683 1.8335 1.8335 2.92683 1.8335 6.00016V10.0002C1.8335 13.0735 2.92683 14.1668 6.00016 14.1668H10.0002C13.0735 14.1668 14.1668 13.0735 14.1668 10.0002V6.00016C14.1668 2.92683 13.0735 1.8335 10.0002 1.8335H6.00016Z" fill="#292D32"/>
<path d="M8.00016 8.66683C7.62683 8.66683 7.3335 8.36683 7.3335 8.00016C7.3335 7.6335 7.6335 7.3335 8.00016 7.3335C8.36683 7.3335 8.66683 7.6335 8.66683 8.00016C8.66683 8.36683 8.3735 8.66683 8.00016 8.66683Z" fill="#292D32"/>
<path d="M10.6667 8.66683C10.2933 8.66683 10 8.36683 10 8.00016C10 7.6335 10.3 7.3335 10.6667 7.3335C11.0333 7.3335 11.3333 7.6335 11.3333 8.00016C11.3333 8.36683 11.04 8.66683 10.6667 8.66683Z" fill="#292D32"/>
<path d="M5.33317 8.66683C4.95984 8.66683 4.6665 8.36683 4.6665 8.00016C4.6665 7.6335 4.9665 7.3335 5.33317 7.3335C5.69984 7.3335 5.99984 7.6335 5.99984 8.00016C5.99984 8.36683 5.7065 8.66683 5.33317 8.66683Z" fill="#292D32"/>
</svg>
