<svg width="71" height="71" viewBox="0 0 71 71" fill="none" xmlns="http://www.w3.org/2000/svg">
<g filter="url(#filter0_d_678_5422)">
<circle cx="35.5" cy="35.5" r="24.5" fill="white"/>
</g>
<path d="M40.0948 25.3018H31.9048C28.9998 25.3018 28.3582 26.7484 27.9848 28.5218L26.6665 34.8334H45.3332L44.0148 28.5218C43.6415 26.7484 42.9998 25.3018 40.0948 25.3018Z" stroke="#374151" stroke-width="1.5" stroke-linecap="round" stroke-linejoin="round"/>
<path d="M47.6552 45.123C47.7835 46.488 46.6868 47.6663 45.2868 47.6663H43.0935C41.8335 47.6663 41.6585 47.1297 41.4368 46.4647L41.2035 45.7647C40.8768 44.808 40.6668 44.1663 38.9868 44.1663H33.0135C31.3335 44.1663 31.0885 44.8897 30.7968 45.7647L30.5635 46.4647C30.3418 47.1297 30.1668 47.6663 28.9068 47.6663H26.7135C25.3135 47.6663 24.2168 46.488 24.3452 45.123L24.9985 38.018C25.1618 36.268 25.5002 34.833 28.5568 34.833H43.4435C46.5002 34.833 46.8385 36.268 47.0018 38.018L47.6552 45.123Z" stroke="#374151" stroke-width="1.5" stroke-linecap="round" stroke-linejoin="round"/>
<path d="M26.6667 31.333H25.5" stroke="#374151" stroke-width="1.5" stroke-linecap="round" stroke-linejoin="round"/>
<path d="M46.5002 31.333H45.3335" stroke="#374151" stroke-width="1.5" stroke-linecap="round" stroke-linejoin="round"/>
<path d="M36 25.5V27.8333" stroke="#374151" stroke-width="1.5" stroke-linecap="round" stroke-linejoin="round"/>
<path d="M34.25 27.833H37.75" stroke="#374151" stroke-width="1.5" stroke-linecap="round" stroke-linejoin="round"/>
<path d="M29 39.5H32.5" stroke="#374151" stroke-width="1.5" stroke-linecap="round" stroke-linejoin="round"/>
<path d="M39.5 39.5H43" stroke="#374151" stroke-width="1.5" stroke-linecap="round" stroke-linejoin="round"/>
<defs>
<filter id="filter0_d_678_5422" x="0" y="0" width="71" height="71" filterUnits="userSpaceOnUse" color-interpolation-filters="sRGB">
<feFlood flood-opacity="0" result="BackgroundImageFix"/>
<feColorMatrix in="SourceAlpha" type="matrix" values="0 0 0 0 0 0 0 0 0 0 0 0 0 0 0 0 0 0 127 0" result="hardAlpha"/>
<feOffset/>
<feGaussianBlur stdDeviation="5.5"/>
<feComposite in2="hardAlpha" operator="out"/>
<feColorMatrix type="matrix" values="0 0 0 0 0 0 0 0 0 0 0 0 0 0 0 0 0 0 0.03 0"/>
<feBlend mode="normal" in2="BackgroundImageFix" result="effect1_dropShadow_678_5422"/>
<feBlend mode="normal" in="SourceGraphic" in2="effect1_dropShadow_678_5422" result="shape"/>
</filter>
</defs>
</svg>
