<svg width="34" height="34" viewBox="0 0 34 34" fill="none" xmlns="http://www.w3.org/2000/svg">
<g filter="url(#filter0_d_812_7619)">
<circle cx="15" cy="15" r="12" fill="white"/>
</g>
<path d="M13.375 18.2351V18.1136C13.3835 17.321 13.4624 16.6903 13.6115 16.2216C13.7649 15.7528 13.9822 15.3736 14.2635 15.0838C14.5447 14.794 14.8835 14.5298 15.2798 14.2912C15.5355 14.1293 15.7656 13.9482 15.9702 13.7479C16.1747 13.5476 16.3366 13.3175 16.456 13.0575C16.5753 12.7976 16.6349 12.5099 16.6349 12.1946C16.6349 11.8153 16.5455 11.4872 16.3665 11.2102C16.1875 10.9332 15.9489 10.7202 15.6506 10.571C15.3565 10.4176 15.0284 10.3409 14.6662 10.3409C14.3381 10.3409 14.0249 10.4091 13.7266 10.5455C13.4283 10.6818 13.1811 10.8949 12.9851 11.1847C12.7891 11.4702 12.6761 11.8388 12.6463 12.2905H10.7031C10.733 11.5234 10.9268 10.8757 11.2848 10.3473C11.6428 9.81463 12.1158 9.41193 12.7038 9.1392C13.2962 8.86648 13.9503 8.73011 14.6662 8.73011C15.4503 8.73011 16.1364 8.87713 16.7244 9.17116C17.3125 9.46094 17.7685 9.8679 18.0923 10.392C18.4205 10.9119 18.5845 11.5192 18.5845 12.2138C18.5845 12.6911 18.5099 13.1214 18.3608 13.505C18.2116 13.8842 17.9986 14.223 17.7216 14.5213C17.4489 14.8196 17.1207 15.0838 16.7372 15.3139C16.375 15.5398 16.081 15.7741 15.8551 16.017C15.6335 16.2599 15.4716 16.5476 15.3693 16.88C15.267 17.2124 15.2116 17.6236 15.2031 18.1136V18.2351H13.375ZM14.3402 22.1214C13.9908 22.1214 13.6903 21.9979 13.4389 21.7507C13.1875 21.4993 13.0618 21.1967 13.0618 20.843C13.0618 20.4936 13.1875 20.1953 13.4389 19.9482C13.6903 19.6967 13.9908 19.571 14.3402 19.571C14.6854 19.571 14.9837 19.6967 15.2351 19.9482C15.4908 20.1953 15.6186 20.4936 15.6186 20.843C15.6186 21.0774 15.5589 21.2926 15.4396 21.4886C15.3246 21.6804 15.1712 21.8338 14.9794 21.9489C14.7876 22.0639 14.5746 22.1214 14.3402 22.1214Z" fill="#D62228"/>
<defs>
<filter id="filter0_d_812_7619" x="0" y="0" width="34" height="34" filterUnits="userSpaceOnUse" color-interpolation-filters="sRGB">
<feFlood flood-opacity="0" result="BackgroundImageFix"/>
<feColorMatrix in="SourceAlpha" type="matrix" values="0 0 0 0 0 0 0 0 0 0 0 0 0 0 0 0 0 0 127 0" result="hardAlpha"/>
<feOffset dx="2" dy="2"/>
<feGaussianBlur stdDeviation="2.5"/>
<feComposite in2="hardAlpha" operator="out"/>
<feColorMatrix type="matrix" values="0 0 0 0 0 0 0 0 0 0 0 0 0 0 0 0 0 0 0.15 0"/>
<feBlend mode="normal" in2="BackgroundImageFix" result="effect1_dropShadow_812_7619"/>
<feBlend mode="normal" in="SourceGraphic" in2="effect1_dropShadow_812_7619" result="shape"/>
</filter>
</defs>
</svg>
